Simulation
nRows=35
nColumns=15
endheader
time  TH_x TH_y TH_z SC_y  SC_z  SC_x  AC_y  AC_z  AC_x  GH_y  GH_z  GH_yy  EL_x  PS_y
5.382082397003745  0.000000  0.000000  0.000000  -37.91759588108771  14.29367724227357  21.092409077819084  54.58922432202938  17.318824777874422  15.923211815565592  0.34047222075018785  58.17899382727621  3.270694260786657  13.471987950435478  120.000000
5.422247191011236  0.000000  0.000000  0.000000  -37.97206175829626  14.32137106933794  21.26614853947455  54.54523223278397  17.266466430450027  15.94912992099048  0.4351301984539988  57.98929533772583  3.2293983434498306  13.492404808502824  120.000000
5.4624119850187265  0.000000  0.000000  0.000000  -37.93206460758345  14.34942150371873  21.32698114312121  54.463451864471274  17.19537450473573  15.894069692237272  0.6159608125717543  57.495853115544804  3.2593613069455696  13.432067319262272  120.000000
5.502576779026217  0.000000  0.000000  0.000000  -37.79301332936899  14.375536000863764  21.271896098941372  54.34419396310486  17.105964584467547  15.755125455180552  0.8798010837997012  56.6760834832449  3.3498422069961173  13.307307305444247  120.000000
5.542741573033708  0.000000  0.000000  0.000000  -37.55300735245691  14.395721321043974  21.100948853923587  54.188176401488136  16.99909229151109  15.530955112603127  1.2226834399741258  55.510612991352  3.485987586495252  13.140632343268114  120.000000
5.582906367041199  0.000000  0.000000  0.000000  -37.21406748027053  14.405088311468548  20.817256610601238  53.996694101241864  16.87565029037189  15.221624655158175  1.6410672830799018  53.98615103303348  3.651191247436795  12.956539462736464  120.000000
5.623071161048689  0.000000  0.000000  0.000000  -36.78301292172285  14.398623769401452  20.427060108337255  53.771785381590526  16.7363533527536  14.828581779616647  2.1332565777693224  52.09817776969046  3.8293832347844123  12.777348134696215  120.000000
5.66323595505618  0.000000  0.000000  0.000000  -36.2717779297656  14.371897667730314  19.939832434371112  53.51627439646254  16.58163478307308  14.354893230218009  2.700900687946564  49.85297969566121  4.006644217142608  12.61983070897218  120.000000
5.70340074906367  0.000000  0.000000  0.000000  -35.69704466884722  14.321561151649393  19.368318347053638  53.23379693821346  16.41177038504156  13.805524656215377  3.350023329948889  47.26846745417433  4.171822809176056  12.49341576772663  120.000000
5.743565543071161  0.000000  0.000000  0.000000  -35.079165278920655  14.24567179205184  18.728295296499198  52.92889458773467  16.226952083235943  13.187615802922567  4.0919410127929545  44.373557300512864  4.315732740558667  12.40023598293923  120.000000
5.7837303370786515  0.000000  0.000000  0.000000  -34.44006865574487  14.143802067128368  18.03794333679053  52.607564354485405  16.02723450755448  12.510787862689892  4.944686568373423  41.206333681719215  4.4287629526154  12.336620964263071  120.000000
5.823895131086142  0.000000  0.000000  0.000000  -33.800819992773505  14.01675235691618  17.316889124357157  52.277809878778044  15.812452329119301  11.787436333939844  5.934890761745504  37.811546975717015  4.497222574937032  12.295369680504336  120.000000
5.864059925093633  0.000000  0.000000  0.000000  -33.180545129630886  13.866486963359451  16.585318392597927  51.949570032178215  15.582239688796697  11.032514220130736  7.099688596660235  34.23802432819354  4.499065699645536  12.267706017429878  120.000000
5.904224719101124  0.000000  0.000000  0.000000  -32.59640266771392  13.696407086867241  15.863304784686825  51.63372283715083  15.336484783011386  10.262424947730398  8.490209299759428  30.53663652406354  4.397940331977731  12.244808322814553  120.000000
5.944389513108614  0.000000  0.000000  0.000000  -32.06357900769337  13.511352091512531  15.170446527254473  51.34103128082031  15.075732107793336  9.49404164872563  10.179209890403767  26.758933050681566  4.13355912412573  12.219161416171714  120.000000
5.984554307116105  0.000000  0.000000  0.000000  -31.595122794784334  13.317450921520186  14.525368860856062  51.0815541661065  14.801278522384207  8.74412725298777  12.277897861579829  22.956318002856232  3.6035364493180952  12.185478512991699  120.000000
6.024719101123596  0.000000  0.000000  0.000000  -31.201685719326743  13.12181814039041  13.945233741655446  50.8642654659189  14.515238212134921  8.028612897213037  14.971321030168323  19.180105112965858  2.6270849089470403  12.141432118213364  120.000000
6.064883895131086  0.000000  0.000000  0.000000  -30.891510627143234  12.932183481297004  13.445284616149532  50.69671800490795  14.220555999298915  7.361956436567002  18.59826035640127  15.483492576709054  0.8645128042374464  12.088149186190668  120.000000
6.1050486891385765  0.000000  0.000000  0.000000  -30.670433568897426  12.756512963530914  13.038443097823505  50.58495583093668  13.920814900599895  6.756620420966748  23.85317271423733  11.928077779351247  -2.385031469217184  12.030435669150826  120.000000
6.145213483146067  0.000000  0.000000  0.000000  -30.54170602627428  12.602402320717287  12.734723843779532  50.53356935911687  13.619839068014812  6.222710453513717  32.36952748615988  8.605238967663684  -8.766805689012378  11.976602129269557  120.000000
6.185378277153558  0.000000  0.000000  0.000000  -30.50587047623113  12.476671520715321  12.540739982355248  50.54568753835219  13.320957712990518  5.7679557692367  48.58551297270303  5.71805745130505  -22.735748431983197  11.937862989447197  120.000000
6.225543071161049  0.000000  0.000000  0.000000  -30.560344864012247  12.384984373063059  12.459406898130686  50.6232512464109  13.026723717634928  5.397681798458766  82.96317313966604  3.901086196626541  -54.77481864421989  11.927374426578352  120.000000
6.265707865168539  0.000000  0.000000  0.000000  -30.698488999596886  12.331533448558679  12.489757497216255  50.767346914893245  12.738647526038921  5.115230626255054  127.9570844093507  4.270142172980744  -97.36285316676353  11.959171405074162  120.000000
6.30587265917603  0.000000  0.000000  0.000000  -30.909284982948552  12.318446769676694  12.627080045811976  50.978045410119286  12.456823426687254  4.9228323068406015  153.19984463223608  6.182075007549451  -120.15896239805852  12.046817381217476  120.000000
6.346037453183521  0.000000  0.000000  0.000000  -31.178060946442354  12.345576816233716  12.863624878562819  51.25431840057362  12.180350700211747  4.821679769072456  165.29069278519916  8.468649262938694  -129.79057563605917  12.202098356885056  120.000000
6.386202247191012  0.000000  0.000000  0.000000  -31.48739482964841  12.411197773349494  13.189137411472739  51.59424542556184  11.90822403352464  4.81173703794362  172.11021997090654  10.748335150396485  -134.1675432190916  12.433840368107093  120.000000
6.426367041198501  0.000000  0.000000  0.000000  -31.819003607847932  12.5123116972689  13.59150957409442  51.99432388887045  11.63986946919359  4.891357394794008  176.5216288758258  12.915247789226783  -136.18319644147797  12.746469812182365  120.000000
6.466531835205992  0.000000  0.000000  0.000000  -32.15673892132772  12.645325068061023  14.058028851285373  52.44781331279082  11.37609676130796  5.056956586476995  179.63074997724385  14.93763630587505  -136.97452197977992  13.138664837320656  120.000000
6.506696629213483  0.000000  0.000000  0.000000  -32.488907412732246  12.806749111130376  14.577363098868148  52.94367302575681  11.120574006891879  5.302855808794503  -178.0731253867245  16.807690078119542  -137.0632168234251  13.601855134420534  120.000000
6.546861423220974  0.000000  0.000000  0.000000  -32.81010218089125  12.993533605506466  15.140949929987187  53.46586449765181  10.880640006147464  5.621378874384918  -176.35282369038543  18.526415139958026  -136.71999475158904  14.119283290027338  120.000000
6.587026217228464  0.000000  0.000000  0.000000  -33.12133782319254  13.203038486886685  15.74260328875075  53.99452730286123  10.666227639773695  6.002679528433494  -175.08843057637213  20.099090561313368  -136.0974253157749  14.667009499822813  120.000000
6.627191011235955  0.000000  0.000000  0.000000  -33.42820998441988  13.43230015154898  16.377795538123767  54.508347219910284  10.487083635817763  6.434198963281786  -174.21820262396608  21.534276097454438  -135.28754550233018  15.216454815681518  120.000000
6.667355805243446  0.000000  0.000000  0.000000  -33.7389861211364  13.677685698296544  17.04256146141562  54.98678277276088  10.351265716922965  6.902109076493995  -173.71140306283536  22.843480682408416  -134.34738539180032  15.737915356780727  120.000000
6.707520599250937  0.000000  0.000000  0.000000  -34.061545960777174  13.93428408479611  17.73301971071755  55.41285589757389  10.264702137524734  7.393416197336396  -173.55467849645106  24.040359014259025  -133.3101097165435  16.204698109384267  120.000000
6.747685393258427  0.000000  0.000000  0.000000  -34.40040716353434  14.19545289861195  18.44540957951528  55.77478350816713  10.23082273933011  7.898201904405069  -173.74150962222126  25.139583573027977  -132.19269080517924  16.59700574925186  120.000000
